<svg width="191" height="45" viewBox="0 0 191 45" fill="none" xmlns="http://www.w3.org/2000/svg">
<rect x="2" y="2" width="186.548" height="40.8824" rx="14.0294" stroke="#00A03A" stroke-width="4"/>
<path d="M47.5401 22.4925L45.9994 24.0988V27H43.3604V15.5264H45.9994V20.8862L51.0806 15.5264H54.0309L49.2776 20.6403L54.3096 27H51.2117L47.5401 22.4925ZM60.513 18.0506C61.6058 18.0506 62.4854 18.3784 63.152 19.034C63.8295 19.6896 64.1682 20.6622 64.1682 21.9516V27H61.6112V22.345C61.6112 21.6456 61.4582 21.1266 61.1523 20.7878C60.8463 20.4382 60.4038 20.2633 59.8246 20.2633C59.1799 20.2633 58.6663 20.4655 58.2839 20.8698C57.9014 21.2632 57.7102 21.8533 57.7102 22.64V27H55.1532V18.1817H57.5954V19.2143C57.9342 18.8428 58.3549 18.5587 58.8575 18.362C59.3602 18.1544 59.912 18.0506 60.513 18.0506ZM70.7781 27.1311C69.8493 27.1311 69.0133 26.9399 68.2703 26.5574C67.5382 26.1641 66.9645 25.6232 66.5492 24.9347C66.134 24.2463 65.9264 23.465 65.9264 22.5908C65.9264 21.7167 66.134 20.9354 66.5492 20.2469C66.9645 19.5585 67.5382 19.0231 68.2703 18.6406C69.0133 18.2472 69.8493 18.0506 70.7781 18.0506C71.7069 18.0506 72.5374 18.2472 73.2695 18.6406C74.0017 19.0231 74.5753 19.5585 74.9906 20.2469C75.4058 20.9354 75.6134 21.7167 75.6134 22.5908C75.6134 23.465 75.4058 24.2463 74.9906 24.9347C74.5753 25.6232 74.0017 26.1641 73.2695 26.5574C72.5374 26.9399 71.7069 27.1311 70.7781 27.1311ZM70.7781 25.0331C71.4337 25.0331 71.9692 24.8145 72.3844 24.3775C72.8106 23.9294 73.0237 23.3339 73.0237 22.5908C73.0237 21.8478 72.8106 21.2577 72.3844 20.8206C71.9692 20.3726 71.4337 20.1486 70.7781 20.1486C70.1225 20.1486 69.5816 20.3726 69.1554 20.8206C68.7292 21.2577 68.5162 21.8478 68.5162 22.5908C68.5162 23.3339 68.7292 23.9294 69.1554 24.3775C69.5816 24.8145 70.1225 25.0331 70.7781 25.0331ZM91.2442 18.1817L88.048 27H85.5893L83.606 21.5254L81.5572 27H79.0985L75.9187 18.1817H78.3282L80.4098 24.148L82.5734 18.1817H84.737L86.8351 24.148L88.9823 18.1817H91.2442ZM107.696 27L107.68 20.1158L104.303 25.7871H103.107L99.7466 20.2633V27H97.2552V15.5264H99.4516L103.746 22.6564L107.975 15.5264H110.155L110.188 27H107.696ZM116.926 27.1311C115.997 27.1311 115.161 26.9399 114.418 26.5574C113.686 26.1641 113.112 25.6232 112.697 24.9347C112.281 24.2463 112.074 23.465 112.074 22.5908C112.074 21.7167 112.281 20.9354 112.697 20.2469C113.112 19.5585 113.686 19.0231 114.418 18.6406C115.161 18.2472 115.997 18.0506 116.926 18.0506C117.854 18.0506 118.685 18.2472 119.417 18.6406C120.149 19.0231 120.723 19.5585 121.138 20.2469C121.553 20.9354 121.761 21.7167 121.761 22.5908C121.761 23.465 121.553 24.2463 121.138 24.9347C120.723 25.6232 120.149 26.1641 119.417 26.5574C118.685 26.9399 117.854 27.1311 116.926 27.1311ZM116.926 25.0331C117.581 25.0331 118.117 24.8145 118.532 24.3775C118.958 23.9294 119.171 23.3339 119.171 22.5908C119.171 21.8478 118.958 21.2577 118.532 20.8206C118.117 20.3726 117.581 20.1486 116.926 20.1486C116.27 20.1486 115.729 20.3726 115.303 20.8206C114.877 21.2577 114.664 21.8478 114.664 22.5908C114.664 23.3339 114.877 23.9294 115.303 24.3775C115.729 24.8145 116.27 25.0331 116.926 25.0331ZM125.912 19.3454C126.218 18.9193 126.628 18.5969 127.142 18.3784C127.666 18.1598 128.267 18.0506 128.945 18.0506V20.4108C128.661 20.389 128.469 20.3781 128.371 20.3781C127.639 20.3781 127.065 20.5857 126.65 21.0009C126.235 21.4052 126.027 22.0172 126.027 22.8367V27H123.47V18.1817H125.912V19.3454ZM139.023 22.6236C139.023 22.6564 139.007 22.8859 138.974 23.312H132.303C132.423 23.8584 132.707 24.29 133.155 24.6069C133.603 24.9238 134.16 25.0823 134.827 25.0823C135.286 25.0823 135.69 25.0167 136.04 24.8856C136.4 24.7435 136.734 24.525 137.04 24.2299L138.4 25.7051C137.57 26.6558 136.357 27.1311 134.761 27.1311C133.767 27.1311 132.887 26.9399 132.122 26.5574C131.357 26.1641 130.767 25.6232 130.352 24.9347C129.937 24.2463 129.729 23.465 129.729 22.5908C129.729 21.7276 129.931 20.9517 130.336 20.2633C130.751 19.564 131.314 19.0231 132.024 18.6406C132.745 18.2472 133.548 18.0506 134.434 18.0506C135.297 18.0506 136.078 18.2363 136.777 18.6078C137.477 18.9794 138.023 19.5148 138.417 20.2142C138.821 20.9026 139.023 21.7057 139.023 22.6236ZM134.45 19.9847C133.871 19.9847 133.385 20.1486 132.991 20.4764C132.598 20.8042 132.357 21.2523 132.27 21.8205H136.614C136.526 21.2632 136.286 20.8206 135.892 20.4928C135.499 20.1541 135.018 19.9847 134.45 19.9847Z" fill="#00A03A"/>
</svg>
